<svg id="mermaid-1777058975527" width="100%" xmlns="http://www.w3.org/2000/svg" xmlns:xlink="http://www.w3.org/1999/xlink" height="576.80712890625" style="max-width: 1347.40625px;" viewBox="0 0 1347.40625 576.80712890625"><style>#mermaid-1777058975527{font-family:"trebuchet ms",verdana,arial;font-size:14px;fill:#23252C;}#mermaid-1777058975527 .error-icon{fill:#552222;}#mermaid-1777058975527 .error-text{fill:#552222;stroke:#552222;}#mermaid-1777058975527 .edge-thickness-normal{stroke-width:2px;}#mermaid-1777058975527 .edge-thickness-thick{stroke-width:3.5px;}#mermaid-1777058975527 .edge-pattern-solid{stroke-dasharray:0;}#mermaid-1777058975527 .edge-pattern-dashed{stroke-dasharray:3;}#mermaid-1777058975527 .edge-pattern-dotted{stroke-dasharray:2;}#mermaid-1777058975527 .marker{fill:#23252C;}#mermaid-1777058975527 .marker.cross{stroke:#23252C;}#mermaid-1777058975527 svg{font-family:"trebuchet ms",verdana,arial;font-size:14px;}#mermaid-1777058975527 .label{font-family:"trebuchet ms",verdana,arial;color:#23252C;}#mermaid-1777058975527 .label text{fill:#23252C;}#mermaid-1777058975527 .node rect,#mermaid-1777058975527 .node circle,#mermaid-1777058975527 .node ellipse,#mermaid-1777058975527 .node polygon,#mermaid-1777058975527 .node path{fill:#FCEAED;stroke:#F6708E;stroke-width:1px;}#mermaid-1777058975527 .node .label{text-align:center;}#mermaid-1777058975527 .node.clickable{cursor:pointer;}#mermaid-1777058975527 .arrowheadPath{fill:#23252C;}#mermaid-1777058975527 .edgePath .path{stroke:#23252C;stroke-width:1.5px;}#mermaid-1777058975527 .flowchart-link{stroke:#23252C;fill:none;}#mermaid-1777058975527 .edgeLabel{background-color:#ffffff;text-align:center;}#mermaid-1777058975527 .edgeLabel rect{opacity:0.5;background-color:#ffffff;fill:#ffffff;}#mermaid-1777058975527 .cluster rect{fill:#F6B4C2;stroke:#E3486A;stroke-width:1px;}#mermaid-1777058975527 .cluster text{fill:#23252C;}#mermaid-1777058975527 div.mermaidTooltip{position:absolute;text-align:center;max-width:200px;padding:2px;font-family:"trebuchet ms",verdana,arial;font-size:12px;background:hsl(188.5185185185,72.972972973%,56.4705882353%);border:1px solid #E3486A;border-radius:2px;pointer-events:none;z-index:100;}#mermaid-1777058975527:root{--mermaid-font-family:"trebuchet ms",verdana,arial;}#mermaid-1777058975527 flowchart-v2{fill:apa;}</style><g transform="translate(0, 0)"><marker id="flowchart-pointEnd" class="marker flowchart" viewBox="0 0 10 10" refX="9" refY="5" markerUnits="userSpaceOnUse" markerWidth="12" markerHeight="12" orient="auto"><path d="M 0 0 L 10 5 L 0 10 z" class="arrowMarkerPath" style="stroke-width: 1; stroke-dasharray: 1, 0;"></path></marker><marker id="flowchart-pointStart" class="marker flowchart" viewBox="0 0 10 10" refX="0" refY="5" markerUnits="userSpaceOnUse" markerWidth="12" markerHeight="12" orient="auto"><path d="M 0 5 L 10 10 L 10 0 z" class="arrowMarkerPath" style="stroke-width: 1; stroke-dasharray: 1, 0;"></path></marker><marker id="flowchart-circleEnd" class="marker flowchart" viewBox="0 0 10 10" refX="11" refY="5" markerUnits="userSpaceOnUse" markerWidth="11" markerHeight="11" orient="auto"><circle cx="5" cy="5" r="5" class="arrowMarkerPath" style="stroke-width: 1; stroke-dasharray: 1, 0;"></circle></marker><marker id="flowchart-circleStart" class="marker flowchart" viewBox="0 0 10 10" refX="-1" refY="5" markerUnits="userSpaceOnUse" markerWidth="11" markerHeight="11" orient="auto"><circle cx="5" cy="5" r="5" class="arrowMarkerPath" style="stroke-width: 1; stroke-dasharray: 1, 0;"></circle></marker><marker id="flowchart-crossEnd" class="marker cross flowchart" viewBox="0 0 11 11" refX="12" refY="5.2" markerUnits="userSpaceOnUse" markerWidth="11" markerHeight="11" orient="auto"><path d="M 1,1 l 9,9 M 10,1 l -9,9" class="arrowMarkerPath" style="stroke-width: 2; stroke-dasharray: 1, 0;"></path></marker><marker id="flowchart-crossStart" class="marker cross flowchart" viewBox="0 0 11 11" refX="-1" refY="5.2" markerUnits="userSpaceOnUse" markerWidth="11" markerHeight="11" orient="auto"><path d="M 1,1 l 9,9 M 10,1 l -9,9" class="arrowMarkerPath" style="stroke-width: 2; stroke-dasharray: 1, 0;"></path></marker><g class="root"><g class="clusters"></g><g class="edgePaths"><path d="M930.5874977111816,39L930.5874977111816,43.166666666666664C930.5874977111816,47.333333333333336,930.5874977111816,55.666666666666664,930.5874977111816,64C930.5874977111816,72.33333333333333,930.5874977111816,80.66666666666667,930.5874977111816,84.83333333333333L930.5874977111816,89" id="L-U-F" class=" edge-thickness-normal edge-pattern-solid flowchart-link LS-U LE-F" marker-end="url(#flowchart-pointEnd)"></path><path d="M859.7625007629395,109.40515562100803L774.1041669845581,115.33762968417336C688.4458332061768,121.27010374733868,517.1291656494141,133.13505187366934,431.4708318710327,143.23419260350133C345.81249809265137,153.33333333333334,345.81249809265137,161.66666666666666,345.81249809265137,165.83333333333334L345.81249809265137,170" id="L-F-B" class=" edge-thickness-normal edge-pattern-solid flowchart-link LS-F LE-B" marker-end="url(#flowchart-pointEnd)"></path><path d="M287.0812473297119,194.00017887064786L250.2312479019165,199.33348239220655C213.3812484741211,204.66678591376524,139.68124961853027,215.33339295688265,102.83125019073486,227.4166964784413C65.98125076293945,239.5,65.98125076293945,253,65.98125076293945,266.5C65.98125076293945,280,65.98125076293945,293.5,65.98125076293945,307C65.98125076293945,320.5,65.98125076293945,334,65.98125076293945,347.5C65.98125076293945,361,65.98125076293945,374.5,65.98125076293945,385.4166666666667C65.98125076293945,396.3333333333333,65.98125076293945,404.6666666666667,65.98125076293945,408.8333333333333L65.98125076293945,413" id="L-B-I1" class=" edge-thickness-normal edge-pattern-solid flowchart-link LS-B LE-I1" marker-end="url(#flowchart-pointEnd)"></path><path d="M404.5437488555908,191.46892257092657L461.1718740463257,197.22410214243882C517.7999992370605,202.97928171395105,631.0562496185303,214.4896408569755,687.6843748092651,224.41148709515446C744.3125,234.33333333333334,744.3125,242.66666666666666,744.3125,246.83333333333334L744.3125,251" id="L-B-I2" class=" edge-thickness-normal edge-pattern-solid flowchart-link LS-B LE-I2" marker-end="url(#flowchart-pointEnd)"></path><path d="M287.0812473297119,199.50833741640366L268.5697895685832,203.92361451366972C250.05833180745444,208.33889161093578,213.03541628519693,217.16944580546792,194.5239585240682,225.75138956940063C176.01250076293945,234.33333333333334,176.01250076293945,242.66666666666666,176.01250076293945,246.83333333333334L176.01250076293945,251" id="L-B-I3" class=" edge-thickness-normal edge-pattern-solid flowchart-link LS-B LE-I3" marker-end="url(#flowchart-pointEnd)"></path><path d="M65.98125076293945,444L65.98125076293945,448.1666666666667C65.98125076293945,452.3333333333333,65.98125076293945,460.6666666666667,77.14114602406819,471.7677953461361C88.30104128519694,482.8689240256055,110.62083180745442,496.73784805121096,121.78072706858318,503.67231006401374L132.9406223297119,510.6067720768165" id="L-I1-D" class=" edge-thickness-normal edge-pattern-solid flowchart-link LS-I1 LE-D" marker-end="url(#flowchart-pointEnd)"></path><path d="M744.3125,282L744.3125,286.1666666666667C744.3125,290.3333333333333,744.3125,298.6666666666667,744.3125,307C744.3125,315.3333333333333,744.3125,323.6666666666667,744.3125,327.8333333333333L744.3125,332" id="L-I2-A" class=" edge-thickness-normal edge-pattern-solid flowchart-link LS-I2 LE-A" marker-end="url(#flowchart-pointEnd)"></path><path d="M176.01250076293945,282L176.01250076293945,286.1666666666667C176.01250076293945,290.3333333333333,176.01250076293945,298.6666666666667,176.01250076293945,307C176.01250076293945,315.3333333333333,176.01250076293945,323.6666666666667,176.01250076293945,327.8333333333333L176.01250076293945,332" id="L-I3-O" class=" edge-thickness-normal edge-pattern-solid flowchart-link LS-I3 LE-O" marker-end="url(#flowchart-pointEnd)"></path><path d="M665.09375,353.7739855780983L593.0677083333334,359.4783213150819C521.0416666666666,365.1826570520655,376.9895833333333,376.5913285260328,304.9635416666667,386.46233092968305C232.9375,396.3333333333333,232.9375,404.6666666666667,232.9375,408.8333333333333L232.9375,413" id="L-A-C1" class=" edge-thickness-normal edge-pattern-solid flowchart-link LS-A LE-C1" marker-end="url(#flowchart-pointEnd)"></path><path d="M665.09375,356.7590003764249L620.5447915395101,361.9658336470208C575.9958330790201,367.1726669176166,486.89791615804035,377.58633345880827,442.3489576975505,386.9598333960708C397.79999923706055,396.3333333333333,397.79999923706055,404.6666666666667,397.79999923706055,408.8333333333333L397.79999923706055,413" id="L-A-C2" class=" edge-thickness-normal edge-pattern-solid flowchart-link LS-A LE-C2" marker-end="url(#flowchart-pointEnd)"></path><path d="M680.2601854771743,363L663.0418213581352,367.1666666666667C645.823457239096,371.3333333333333,611.3867290010177,379.6666666666667,594.1683648819786,388C576.9500007629395,396.3333333333333,576.9500007629395,404.6666666666667,576.9500007629395,408.8333333333333L576.9500007629395,413" id="L-A-C3" class=" edge-thickness-normal edge-pattern-solid flowchart-link LS-A LE-C3" marker-end="url(#flowchart-pointEnd)"></path><path d="M744.3125,363L744.3125,367.1666666666667C744.3125,371.3333333333333,744.3125,379.6666666666667,744.3125,388C744.3125,396.3333333333333,744.3125,404.6666666666667,744.3125,408.8333333333333L744.3125,413" id="L-A-C4" class=" edge-thickness-normal edge-pattern-solid flowchart-link LS-A LE-C4" marker-end="url(#flowchart-pointEnd)"></path><path d="M808.8599537037037,363L826.2114197530864,367.1666666666667C843.5628858024692,371.3333333333333,878.2658179012345,379.6666666666667,895.6172839506172,388C912.96875,396.3333333333333,912.96875,404.6666666666667,912.96875,408.8333333333333L912.96875,413" id="L-A-C5" class=" edge-thickness-normal edge-pattern-solid flowchart-link LS-A LE-C5" marker-end="url(#flowchart-pointEnd)"></path><path d="M823.53125,357.42033205314334L864.2302080790201,362.5169433776194C904.9291661580404,367.61355470209554,986.3270823160807,377.80677735104774,1027.0260403951008,387.0700553421905C1067.724998474121,396.3333333333333,1067.724998474121,404.6666666666667,1067.724998474121,408.8333333333333L1067.724998474121,413" id="L-A-C6" class=" edge-thickness-normal edge-pattern-solid flowchart-link LS-A LE-C6" marker-end="url(#flowchart-pointEnd)"></path><path d="M823.53125,354.11611185120177L891.1499996185303,359.7634265426682C958.7687492370605,365.41074123413455,1094.006248474121,376.7053706170673,1161.6249980926514,386.5193519752003C1229.2437477111816,396.3333333333333,1229.2437477111816,404.6666666666667,1229.2437477111816,408.8333333333333L1229.2437477111816,413" id="L-A-C7" class=" edge-thickness-normal edge-pattern-solid flowchart-link LS-A LE-C7" marker-end="url(#flowchart-pointEnd)"></path><path d="M397.79999923706055,444L397.79999923706055,448.1666666666667C397.79999923706055,452.3333333333333,397.79999923706055,460.6666666666667,382.9151035944621,472.51242393532084C368.0302079518636,484.3581812039751,338.2604166666667,499.71636240795016,323.3755210240682,507.3954530099377L308.4906253814697,515.0745436119253" id="L-C2-D" class=" edge-thickness-normal edge-pattern-solid flowchart-link LS-C2 LE-D" marker-end="url(#flowchart-pointEnd)"></path><path d="M576.9500007629395,444L576.9500007629395,448.1666666666667C576.9500007629395,452.3333333333333,576.9500007629395,460.6666666666667,576.9500007629395,472.650598526001C576.9500007629395,484.63453038533527,576.9500007629395,500.2690607706706,576.9500007629395,508.0863259633382L576.9500007629395,515.9035911560059" id="L-C3-W" class=" edge-thickness-normal edge-pattern-solid flowchart-link LS-C3 LE-W" marker-end="url(#flowchart-pointEnd)"></path><path d="M912.96875,444L912.96875,448.1666666666667C912.96875,452.3333333333333,912.96875,460.6666666666667,959.2645823160807,473.03831753091384C1005.5604146321615,485.409968395161,1098.152079264323,501.81993679032206,1144.4479115804036,510.02492098790253L1190.7437438964844,518.2299051854831" id="L-C5-R" class=" edge-thickness-normal edge-pattern-solid flowchart-link LS-C5 LE-R" marker-end="url(#flowchart-pointEnd)"></path><path d="M1229.2437477111816,444L1229.2437477111816,448.1666666666667C1229.2437477111816,452.3333333333333,1229.2437477111816,460.6666666666667,1233.7323095436318,472.650598526001C1238.220871376082,484.63453038533527,1247.1979950409823,500.2690607706706,1251.6865568734324,508.0863259633382L1256.1751187058826,515.9035911560059" id="L-C7-R" class=" edge-thickness-normal edge-pattern-solid flowchart-link LS-C7 LE-R" marker-end="url(#flowchart-pointEnd)"></path><path d="M1001.4124946594238,111.80491634699884L1055.0531202952068,117.3374302891657C1108.6937459309895,122.86994423133255,1215.9749972025554,133.93497211566628,1269.6156228383381,146.21748605783316C1323.256248474121,158.5,1323.256248474121,172,1323.256248474121,185.5C1323.256248474121,199,1323.256248474121,212.5,1323.256248474121,226C1323.256248474121,239.5,1323.256248474121,253,1323.256248474121,266.5C1323.256248474121,280,1323.256248474121,293.5,1323.256248474121,307C1323.256248474121,320.5,1323.256248474121,334,1323.256248474121,347.5C1323.256248474121,361,1323.256248474121,374.5,1323.256248474121,388C1323.256248474121,401.5,1323.256248474121,415,1323.256248474121,428.5C1323.256248474121,442,1323.256248474121,455.5,1315.9679135563104,470.06726519266766C1308.6795786384998,484.63453038533527,1294.1029088028788,500.2690607706706,1286.814573885068,508.0863259633382L1279.5262389672575,515.9035911560059" id="L-F-R" class=" edge-thickness-normal edge-pattern-solid flowchart-link LS-F LE-R" marker-end="url(#flowchart-pointEnd)"></path></g><g class="edgeLabels"><g class="edgeLabel"><g class="label" transform="translate(0, 0)"><foreignObject width="0" height="0"><div xmlns="http://www.w3.org/1999/xhtml" style="display: inline-block; white-space: nowrap;"><span class="edgeLabel"></span></div></foreignObject></g></g><g class="edgeLabel"><g class="label" transform="translate(0, 0)"><foreignObject width="0" height="0"><div xmlns="http://www.w3.org/1999/xhtml" style="display: inline-block; white-space: nowrap;"><span class="edgeLabel"></span></div></foreignObject></g></g><g class="edgeLabel"><g class="label" transform="translate(0, 0)"><foreignObject width="0" height="0"><div xmlns="http://www.w3.org/1999/xhtml" style="display: inline-block; white-space: nowrap;"><span class="edgeLabel"></span></div></foreignObject></g></g><g class="edgeLabel"><g class="label" transform="translate(0, 0)"><foreignObject width="0" height="0"><div xmlns="http://www.w3.org/1999/xhtml" style="display: inline-block; white-space: nowrap;"><span class="edgeLabel"></span></div></foreignObject></g></g><g class="edgeLabel"><g class="label" transform="translate(0, 0)"><foreignObject width="0" height="0"><div xmlns="http://www.w3.org/1999/xhtml" style="display: inline-block; white-space: nowrap;"><span class="edgeLabel"></span></div></foreignObject></g></g><g class="edgeLabel"><g class="label" transform="translate(0, 0)"><foreignObject width="0" height="0"><div xmlns="http://www.w3.org/1999/xhtml" style="display: inline-block; white-space: nowrap;"><span class="edgeLabel"></span></div></foreignObject></g></g><g class="edgeLabel"><g class="label" transform="translate(0, 0)"><foreignObject width="0" height="0"><div xmlns="http://www.w3.org/1999/xhtml" style="display: inline-block; white-space: nowrap;"><span class="edgeLabel"></span></div></foreignObject></g></g><g class="edgeLabel"><g class="label" transform="translate(0, 0)"><foreignObject width="0" height="0"><div xmlns="http://www.w3.org/1999/xhtml" style="display: inline-block; white-space: nowrap;"><span class="edgeLabel"></span></div></foreignObject></g></g><g class="edgeLabel"><g class="label" transform="translate(0, 0)"><foreignObject width="0" height="0"><div xmlns="http://www.w3.org/1999/xhtml" style="display: inline-block; white-space: nowrap;"><span class="edgeLabel"></span></div></foreignObject></g></g><g class="edgeLabel"><g class="label" transform="translate(0, 0)"><foreignObject width="0" height="0"><div xmlns="http://www.w3.org/1999/xhtml" style="display: inline-block; white-space: nowrap;"><span class="edgeLabel"></span></div></foreignObject></g></g><g class="edgeLabel"><g class="label" transform="translate(0, 0)"><foreignObject width="0" height="0"><div xmlns="http://www.w3.org/1999/xhtml" style="display: inline-block; white-space: nowrap;"><span class="edgeLabel"></span></div></foreignObject></g></g><g class="edgeLabel"><g class="label" transform="translate(0, 0)"><foreignObject width="0" height="0"><div xmlns="http://www.w3.org/1999/xhtml" style="display: inline-block; white-space: nowrap;"><span class="edgeLabel"></span></div></foreignObject></g></g><g class="edgeLabel"><g class="label" transform="translate(0, 0)"><foreignObject width="0" height="0"><div xmlns="http://www.w3.org/1999/xhtml" style="display: inline-block; white-space: nowrap;"><span class="edgeLabel"></span></div></foreignObject></g></g><g class="edgeLabel"><g class="label" transform="translate(0, 0)"><foreignObject width="0" height="0"><div xmlns="http://www.w3.org/1999/xhtml" style="display: inline-block; white-space: nowrap;"><span class="edgeLabel"></span></div></foreignObject></g></g><g class="edgeLabel"><g class="label" transform="translate(0, 0)"><foreignObject width="0" height="0"><div xmlns="http://www.w3.org/1999/xhtml" style="display: inline-block; white-space: nowrap;"><span class="edgeLabel"></span></div></foreignObject></g></g><g class="edgeLabel"><g class="label" transform="translate(0, 0)"><foreignObject width="0" height="0"><div xmlns="http://www.w3.org/1999/xhtml" style="display: inline-block; white-space: nowrap;"><span class="edgeLabel"></span></div></foreignObject></g></g><g class="edgeLabel"><g class="label" transform="translate(0, 0)"><foreignObject width="0" height="0"><div xmlns="http://www.w3.org/1999/xhtml" style="display: inline-block; white-space: nowrap;"><span class="edgeLabel"></span></div></foreignObject></g></g><g class="edgeLabel"><g class="label" transform="translate(0, 0)"><foreignObject width="0" height="0"><div xmlns="http://www.w3.org/1999/xhtml" style="display: inline-block; white-space: nowrap;"><span class="edgeLabel"></span></div></foreignObject></g></g><g class="edgeLabel"><g class="label" transform="translate(0, 0)"><foreignObject width="0" height="0"><div xmlns="http://www.w3.org/1999/xhtml" style="display: inline-block; white-space: nowrap;"><span class="edgeLabel"></span></div></foreignObject></g></g><g class="edgeLabel"><g class="label" transform="translate(0, 0)"><foreignObject width="0" height="0"><div xmlns="http://www.w3.org/1999/xhtml" style="display: inline-block; white-space: nowrap;"><span class="edgeLabel"></span></div></foreignObject></g></g></g><g class="nodes"><g class="node default default" id="flowchart-U-280" transform="translate(930.5874977111816, 23.5)"><rect class="basic label-container" style="" rx="0" ry="0" x="-21.412500381469727" y="-15.5" width="42.82500076293945" height="31"></rect><g class="label" style="" transform="translate(-13.912500381469727, -8)"><foreignObject width="27.825000762939453" height="16"><div xmlns="http://www.w3.org/1999/xhtml" style="display: inline-block; white-space: nowrap;"><span class="nodeLabel">User</span></div></foreignObject></g></g><g class="node default default" id="flowchart-F-281" transform="translate(930.5874977111816, 104.5)"><rect class="basic label-container" style="" rx="0" ry="0" x="-70.82500076293945" y="-15.5" width="141.6500015258789" height="31"></rect><g class="label" style="" transform="translate(-63.32500076293945, -8)"><foreignObject width="126.6500015258789" height="16"><div xmlns="http://www.w3.org/1999/xhtml" style="display: inline-block; white-space: nowrap;"><span class="nodeLabel">Frontend Svelte App</span></div></foreignObject></g></g><g class="node default default" id="flowchart-B-283" transform="translate(345.81249809265137, 185.5)"><rect class="basic label-container" style="" rx="0" ry="0" x="-58.73125076293945" y="-15.5" width="117.4625015258789" height="31"></rect><g class="label" style="" transform="translate(-51.23125076293945, -8)"><foreignObject width="102.4625015258789" height="16"><div xmlns="http://www.w3.org/1999/xhtml" style="display: inline-block; white-space: nowrap;"><span class="nodeLabel">FastAPI Backend</span></div></foreignObject></g></g><g class="node default default" id="flowchart-I1-285" transform="translate(65.98125076293945, 428.5)"><rect class="basic label-container" style="" rx="0" ry="0" x="-57.98125076293945" y="-15.5" width="115.9625015258789" height="31"></rect><g class="label" style="" transform="translate(-50.48125076293945, -8)"><foreignObject width="100.9625015258789" height="16"><div xmlns="http://www.w3.org/1999/xhtml" style="display: inline-block; white-space: nowrap;"><span class="nodeLabel">Item Lookup API</span></div></foreignObject></g></g><g class="node default default" id="flowchart-I2-287" transform="translate(744.3125, 266.5)"><rect class="basic label-container" style="" rx="0" ry="0" x="-81.36250305175781" y="-15.5" width="162.72500610351562" height="31"></rect><g class="label" style="" transform="translate(-73.86250305175781, -8)"><foreignObject width="147.72500610351562" height="16"><div xmlns="http://www.w3.org/1999/xhtml" style="display: inline-block; white-space: nowrap;"><span class="nodeLabel">Instagram Workflow API</span></div></foreignObject></g></g><g class="node default default" id="flowchart-I3-289" transform="translate(176.01250076293945, 266.5)"><rect class="basic label-container" style="" rx="0" ry="0" x="-75.03125" y="-15.5" width="150.0625" height="31"></rect><g class="label" style="" transform="translate(-67.53125, -8)"><foreignObject width="135.0625" height="16"><div xmlns="http://www.w3.org/1999/xhtml" style="display: inline-block; white-space: nowrap;"><span class="nodeLabel">Image Generation API</span></div></foreignObject></g></g><g class="node default" id="flowchart-D-291" label-offset-y="14.602395713628248" transform="translate(220.71562385559082, 531.4035911560059)"><path d="M 0,14.602395713628248 a 87.7750015258789,14.602395713628248 0,0,0 175.5500030517578 0 a 87.7750015258789,14.602395713628248 0,0,0 -175.5500030517578 0 l 0,45.60239571362825 a 87.7750015258789,14.602395713628248 0,0,0 175.5500030517578 0 l 0,-45.60239571362825" transform="translate(-87.7750015258789,-37.40359357044237)"></path><g class="label" style="" transform="translate(-80.2750015258789, -8)"><foreignObject width="160.5500030517578" height="16"><div xmlns="http://www.w3.org/1999/xhtml" style="display: inline-block; white-space: nowrap;"><span class="nodeLabel">Product Data / Snowflake</span></div></foreignObject></g></g><g class="node default default" id="flowchart-A-293" transform="translate(744.3125, 347.5)"><rect class="basic label-container" style="" rx="0" ry="0" x="-79.21875" y="-15.5" width="158.4375" height="31"></rect><g class="label" style="" transform="translate(-71.71875, -8)"><foreignObject width="143.4375" height="16"><div xmlns="http://www.w3.org/1999/xhtml" style="display: inline-block; white-space: nowrap;"><span class="nodeLabel">Instagram CrewAI Flow</span></div></foreignObject></g></g><g class="node default default" id="flowchart-O-295" transform="translate(176.01250076293945, 347.5)"><rect class="basic label-container" style="" rx="0" ry="0" x="-71.33124923706055" y="-15.5" width="142.6624984741211" height="31"></rect><g class="label" style="" transform="translate(-63.83124923706055, -8)"><foreignObject width="127.6624984741211" height="16"><div xmlns="http://www.w3.org/1999/xhtml" style="display: inline-block; white-space: nowrap;"><span class="nodeLabel">OpenAI Image Model</span></div></foreignObject></g></g><g class="node default default" id="flowchart-C1-297" transform="translate(232.9375, 428.5)"><rect class="basic label-container" style="" rx="0" ry="0" x="-58.97500228881836" y="-15.5" width="117.95000457763672" height="31"></rect><g class="label" style="" transform="translate(-51.47500228881836, -8)"><foreignObject width="102.95000457763672" height="16"><div xmlns="http://www.w3.org/1999/xhtml" style="display: inline-block; white-space: nowrap;"><span class="nodeLabel">Controller Agent</span></div></foreignObject></g></g><g class="node default default" id="flowchart-C2-299" transform="translate(397.79999923706055, 428.5)"><rect class="basic label-container" style="" rx="0" ry="0" x="-55.88750076293945" y="-15.5" width="111.7750015258789" height="31"></rect><g class="label" style="" transform="translate(-48.38750076293945, -8)"><foreignObject width="96.7750015258789" height="16"><div xmlns="http://www.w3.org/1999/xhtml" style="display: inline-block; white-space: nowrap;"><span class="nodeLabel">Reviewer Agent</span></div></foreignObject></g></g><g class="node default default" id="flowchart-C3-301" transform="translate(576.9500007629395, 428.5)"><rect class="basic label-container" style="" rx="0" ry="0" x="-50.95624923706055" y="-15.5" width="101.9124984741211" height="31"></rect><g class="label" style="" transform="translate(-43.45624923706055, -8)"><foreignObject width="86.9124984741211" height="16"><div xmlns="http://www.w3.org/1999/xhtml" style="display: inline-block; white-space: nowrap;"><span class="nodeLabel">Scraper Agent</span></div></foreignObject></g></g><g class="node default default" id="flowchart-C4-303" transform="translate(744.3125, 428.5)"><rect class="basic label-container" style="" rx="0" ry="0" x="-66.40625" y="-15.5" width="132.8125" height="31"></rect><g class="label" style="" transform="translate(-58.90625, -8)"><foreignObject width="117.8125" height="16"><div xmlns="http://www.w3.org/1999/xhtml" style="display: inline-block; white-space: nowrap;"><span class="nodeLabel">Summary Validator</span></div></foreignObject></g></g><g class="node default default" id="flowchart-C5-305" transform="translate(912.96875, 428.5)"><rect class="basic label-container" style="" rx="0" ry="0" x="-52.25" y="-15.5" width="104.5" height="31"></rect><g class="label" style="" transform="translate(-44.75, -8)"><foreignObject width="89.5" height="16"><div xmlns="http://www.w3.org/1999/xhtml" style="display: inline-block; white-space: nowrap;"><span class="nodeLabel">Content Agent</span></div></foreignObject></g></g><g class="node default default" id="flowchart-C6-307" transform="translate(1067.724998474121, 428.5)"><rect class="basic label-container" style="" rx="0" ry="0" x="-52.50625228881836" y="-15.5" width="105.01250457763672" height="31"></rect><g class="label" style="" transform="translate(-45.00625228881836, -8)"><foreignObject width="90.01250457763672" height="16"><div xmlns="http://www.w3.org/1999/xhtml" style="display: inline-block; white-space: nowrap;"><span class="nodeLabel">Critique Agent</span></div></foreignObject></g></g><g class="node default default" id="flowchart-C7-309" transform="translate(1229.2437477111816, 428.5)"><rect class="basic label-container" style="" rx="0" ry="0" x="-59.01250076293945" y="-15.5" width="118.0250015258789" height="31"></rect><g class="label" style="" transform="translate(-51.51250076293945, -8)"><foreignObject width="103.0250015258789" height="16"><div xmlns="http://www.w3.org/1999/xhtml" style="display: inline-block; white-space: nowrap;"><span class="nodeLabel">Formatter Agent</span></div></foreignObject></g></g><g class="node default default" id="flowchart-W-313" transform="translate(576.9500007629395, 531.4035911560059)"><rect class="basic label-container" style="" rx="0" ry="0" x="-63.681251525878906" y="-15.5" width="127.36250305175781" height="31"></rect><g class="label" style="" transform="translate(-56.181251525878906, -8)"><foreignObject width="112.36250305175781" height="16"><div xmlns="http://www.w3.org/1999/xhtml" style="display: inline-block; white-space: nowrap;"><span class="nodeLabel">Web Product Page</span></div></foreignObject></g></g><g class="node default default" id="flowchart-R-315" transform="translate(1265.0749969482422, 531.4035911560059)"><rect class="basic label-container" style="" rx="0" ry="0" x="-74.33125305175781" y="-15.5" width="148.66250610351562" height="31"></rect><g class="label" style="" transform="translate(-66.83125305175781, -8)"><foreignObject width="133.66250610351562" height="16"><div xmlns="http://www.w3.org/1999/xhtml" style="display: inline-block; white-space: nowrap;"><span class="nodeLabel">Instagram Post Drafts</span></div></foreignObject></g></g></g></g></g></svg>