<svg id="mermaid-1777087892198" width="100%" xmlns="http://www.w3.org/2000/svg" xmlns:xlink="http://www.w3.org/1999/xlink" height="738.68212890625" style="max-width: 618.4500122070312px;" viewBox="0 0 618.4500122070312 738.68212890625"><style>#mermaid-1777087892198{font-family:"trebuchet ms",verdana,arial;font-size:14px;fill:#23252C;}#mermaid-1777087892198 .error-icon{fill:#552222;}#mermaid-1777087892198 .error-text{fill:#552222;stroke:#552222;}#mermaid-1777087892198 .edge-thickness-normal{stroke-width:2px;}#mermaid-1777087892198 .edge-thickness-thick{stroke-width:3.5px;}#mermaid-1777087892198 .edge-pattern-solid{stroke-dasharray:0;}#mermaid-1777087892198 .edge-pattern-dashed{stroke-dasharray:3;}#mermaid-1777087892198 .edge-pattern-dotted{stroke-dasharray:2;}#mermaid-1777087892198 .marker{fill:#23252C;}#mermaid-1777087892198 .marker.cross{stroke:#23252C;}#mermaid-1777087892198 svg{font-family:"trebuchet ms",verdana,arial;font-size:14px;}#mermaid-1777087892198 .label{font-family:"trebuchet ms",verdana,arial;color:#23252C;}#mermaid-1777087892198 .label text{fill:#23252C;}#mermaid-1777087892198 .node rect,#mermaid-1777087892198 .node circle,#mermaid-1777087892198 .node ellipse,#mermaid-1777087892198 .node polygon,#mermaid-1777087892198 .node path{fill:#FCEAED;stroke:#F6708E;stroke-width:1px;}#mermaid-1777087892198 .node .label{text-align:center;}#mermaid-1777087892198 .node.clickable{cursor:pointer;}#mermaid-1777087892198 .arrowheadPath{fill:#23252C;}#mermaid-1777087892198 .edgePath .path{stroke:#23252C;stroke-width:1.5px;}#mermaid-1777087892198 .flowchart-link{stroke:#23252C;fill:none;}#mermaid-1777087892198 .edgeLabel{background-color:#ffffff;text-align:center;}#mermaid-1777087892198 .edgeLabel rect{opacity:0.5;background-color:#ffffff;fill:#ffffff;}#mermaid-1777087892198 .cluster rect{fill:#F6B4C2;stroke:#E3486A;stroke-width:1px;}#mermaid-1777087892198 .cluster text{fill:#23252C;}#mermaid-1777087892198 div.mermaidTooltip{position:absolute;text-align:center;max-width:200px;padding:2px;font-family:"trebuchet ms",verdana,arial;font-size:12px;background:hsl(188.5185185185,72.972972973%,56.4705882353%);border:1px solid #E3486A;border-radius:2px;pointer-events:none;z-index:100;}#mermaid-1777087892198:root{--mermaid-font-family:"trebuchet ms",verdana,arial;}#mermaid-1777087892198 flowchart-v2{fill:apa;}</style><g transform="translate(0, 0)"><marker id="flowchart-pointEnd" class="marker flowchart" viewBox="0 0 10 10" refX="9" refY="5" markerUnits="userSpaceOnUse" markerWidth="12" markerHeight="12" orient="auto"><path d="M 0 0 L 10 5 L 0 10 z" class="arrowMarkerPath" style="stroke-width: 1; stroke-dasharray: 1, 0;"></path></marker><marker id="flowchart-pointStart" class="marker flowchart" viewBox="0 0 10 10" refX="0" refY="5" markerUnits="userSpaceOnUse" markerWidth="12" markerHeight="12" orient="auto"><path d="M 0 5 L 10 10 L 10 0 z" class="arrowMarkerPath" style="stroke-width: 1; stroke-dasharray: 1, 0;"></path></marker><marker id="flowchart-circleEnd" class="marker flowchart" viewBox="0 0 10 10" refX="11" refY="5" markerUnits="userSpaceOnUse" markerWidth="11" markerHeight="11" orient="auto"><circle cx="5" cy="5" r="5" class="arrowMarkerPath" style="stroke-width: 1; stroke-dasharray: 1, 0;"></circle></marker><marker id="flowchart-circleStart" class="marker flowchart" viewBox="0 0 10 10" refX="-1" refY="5" markerUnits="userSpaceOnUse" markerWidth="11" markerHeight="11" orient="auto"><circle cx="5" cy="5" r="5" class="arrowMarkerPath" style="stroke-width: 1; stroke-dasharray: 1, 0;"></circle></marker><marker id="flowchart-crossEnd" class="marker cross flowchart" viewBox="0 0 11 11" refX="12" refY="5.2" markerUnits="userSpaceOnUse" markerWidth="11" markerHeight="11" orient="auto"><path d="M 1,1 l 9,9 M 10,1 l -9,9" class="arrowMarkerPath" style="stroke-width: 2; stroke-dasharray: 1, 0;"></path></marker><marker id="flowchart-crossStart" class="marker cross flowchart" viewBox="0 0 11 11" refX="-1" refY="5.2" markerUnits="userSpaceOnUse" markerWidth="11" markerHeight="11" orient="auto"><path d="M 1,1 l 9,9 M 10,1 l -9,9" class="arrowMarkerPath" style="stroke-width: 2; stroke-dasharray: 1, 0;"></path></marker><g class="root"><g class="clusters"></g><g class="edgePaths"><path d="M288.0656280517578,39L288.0656280517578,43.166666666666664C288.0656280517578,47.333333333333336,288.0656280517578,55.666666666666664,288.0656280517578,64C288.0656280517578,72.33333333333333,288.0656280517578,80.66666666666667,288.0656280517578,84.83333333333333L288.0656280517578,89" id="L-U-F" class=" edge-thickness-normal edge-pattern-solid flowchart-link LS-U LE-F" marker-end="url(#flowchart-pointEnd)"></path><path d="M216.2718734741211,119.57407143501291L196.08906173706055,123.81172619584409C175.90625,128.04938095667526,135.5406265258789,136.52469047833765,115.35781478881836,144.9290119058355C95.17500305175781,153.33333333333334,95.17500305175781,161.66666666666666,95.17500305175781,165.83333333333334L95.17500305175781,170" id="L-F-L" class=" edge-thickness-normal edge-pattern-solid flowchart-link LS-F LE-L" marker-end="url(#flowchart-pointEnd)"></path><path d="M95.17500305175781,201L95.17500305175781,205.16666666666666C95.17500305175781,209.33333333333334,95.17500305175781,217.66666666666666,95.17500305175781,226C95.17500305175781,234.33333333333334,95.17500305175781,242.66666666666666,95.17500305175781,246.83333333333334L95.17500305175781,251" id="L-L-S" class=" edge-thickness-normal edge-pattern-solid flowchart-link LS-L LE-S" marker-end="url(#flowchart-pointEnd)"></path><path d="M298.40254993203246,120L301.1812923729665,124.16666666666667C303.96003481390056,128.33333333333334,309.5175196957686,136.66666666666666,312.29626213670264,147.58333333333334C315.0750045776367,158.5,315.0750045776367,172,315.0750045776367,185.5C315.0750045776367,199,315.0750045776367,212.5,315.0750045776367,227.05684534708658C315.0750045776367,241.6136906941732,315.0750045776367,257.2273813883464,315.0750045776367,265.0342267354329L315.0750045776367,272.84107208251953" id="L-F-M" class=" edge-thickness-normal edge-pattern-solid flowchart-link LS-F LE-M" marker-end="url(#flowchart-pointEnd)"></path><path d="M359.85938262939453,116.56195363768384L388.07032012939453,121.3016280314032C416.28125762939453,126.04130242512257,472.70313262939453,135.52065121256126,500.91407012939453,147.01032560628065C529.1250076293945,158.5,529.1250076293945,172,529.1250076293945,185.5C529.1250076293945,199,529.1250076293945,212.5,529.1250076293945,227.05684534708658C529.1250076293945,241.6136906941732,529.1250076293945,257.2273813883464,529.1250076293945,265.0342267354329L529.1250076293945,272.84107208251953" id="L-F-C" class=" edge-thickness-normal edge-pattern-solid flowchart-link LS-F LE-C" marker-end="url(#flowchart-pointEnd)"></path><path d="M95.17500305175781,325.68214416503906L95.17500305175781,329.84881083170575C95.17500305175781,334.0154774983724,95.17500305175781,342.34881083170575,124.13073221842448,351.63304692861954C153.08646138509116,360.9172830255334,210.99791971842447,371.1524218860277,239.95364888509116,376.2699913162748L268.9093780517578,381.38756074652196" id="L-S-V" class=" edge-thickness-normal edge-pattern-solid flowchart-link LS-S LE-V" marker-end="url(#flowchart-pointEnd)"></path><path d="M315.0750045776367,303.84107208251953L315.0750045776367,311.64791742960614C315.0750045776367,319.4547627766927,315.0750045776367,335.0684534708659,316.0269720917376,347.04196548461914C316.97893960583843,359.0154774983724,318.8828746340402,367.34881083170575,319.8348421481411,371.5154774983724L320.786809662242,375.68214416503906" id="L-M-V" class=" edge-thickness-normal edge-pattern-solid flowchart-link LS-M LE-V" marker-end="url(#flowchart-pointEnd)"></path><path d="M529.1250076293945,303.84107208251953L529.1250076293945,311.64791742960614C529.1250076293945,319.4547627766927,529.1250076293945,335.0684534708659,504.22865295410156,347.79872524019635C479.3322982788086,360.52899700952685,429.53958892822266,370.3758498540147,404.6432342529297,375.2992762762586L379.7468795776367,380.22270269850253" id="L-C-V" class=" edge-thickness-normal edge-pattern-solid flowchart-link LS-C LE-V" marker-end="url(#flowchart-pointEnd)"></path><path d="M324.32812881469727,406.68214416503906L324.32812881469727,410.84881083170575C324.32812881469727,415.0154774983724,324.32812881469727,423.34881083170575,324.32812881469727,431.68214416503906C324.32812881469727,440.0154774983724,324.32812881469727,448.34881083170575,324.32812881469727,452.5154774983724L324.32812881469727,456.68214416503906" id="L-V-SUM" class=" edge-thickness-normal edge-pattern-solid flowchart-link LS-V LE-SUM" marker-end="url(#flowchart-pointEnd)"></path><path d="M324.32812881469727,487.68214416503906L324.32812881469727,491.84881083170575C324.32812881469727,496.0154774983724,324.32812881469727,504.34881083170575,324.32812881469727,512.6821441650391C324.32812881469727,521.0154774983724,324.32812881469727,529.3488108317057,324.32812881469727,533.5154774983724L324.32812881469727,537.6821441650391" id="L-SUM-GEN" class=" edge-thickness-normal edge-pattern-solid flowchart-link LS-SUM LE-GEN" marker-end="url(#flowchart-pointEnd)"></path><path d="M271.05285875296886,568.6821441650391L256.73154959659024,572.8488108317057C242.41024044021165,577.0154774983724,213.76762212745447,585.3488108317057,200.77604540287223,593.6821441650391C187.78446867828998,602.0154774983724,190.44393354188267,610.3488108317057,191.77366597367904,614.5154774983724L193.1033984054754,618.6821441650391" id="L-GEN-CRIT" class=" edge-thickness-normal edge-pattern-solid flowchart-link LS-GEN LE-CRIT" marker-end="url(#flowchart-pointEnd)"></path><path d="M200.7577193931297,618.6821441650391L201.48560013005763,614.5154774983724C202.21348086698558,610.3488108317057,203.6692423408414,602.0154774983724,216.66081906542365,593.6821441650391C229.6523957900059,585.3488108317057,254.17978776531456,577.0154774983724,266.44348375296886,572.8488108317057L278.7071797406232,568.6821441650391" id="L-CRIT-GEN" class=" edge-thickness-normal edge-pattern-solid flowchart-link LS-CRIT LE-GEN" marker-end="url(#flowchart-pointEnd)"></path><path d="M337.24599117702905,568.6821441650391L340.71853482281716,572.8488108317057C344.1910784686053,577.0154774983724,351.13616576018154,585.3488108317057,354.6087094059697,593.6821441650391C358.0812530517578,602.0154774983724,358.0812530517578,610.3488108317057,358.0812530517578,614.5154774983724L358.0812530517578,618.6821441650391" id="L-GEN-VIS" class=" edge-thickness-normal edge-pattern-solid flowchart-link LS-GEN LE-VIS" marker-end="url(#flowchart-pointEnd)"></path><path d="M358.0812530517578,649.6821441650391L358.0812530517578,653.8488108317057C358.0812530517578,658.0154774983724,358.0812530517578,666.3488108317057,362.84076959115487,674.6821441650391C367.6002861305519,683.0154774983724,377.11931920934603,691.3488108317057,381.87883574874314,695.5154774983724L386.6383522881402,699.6821441650391" id="L-VIS-O" class=" edge-thickness-normal edge-pattern-solid flowchart-link LS-VIS LE-O" marker-end="url(#flowchart-pointEnd)"></path><path d="M372.65679423014325,568.6821441650391L385.6483709547255,572.8488108317057C398.6399476793078,577.0154774983724,424.62310112847223,585.3488108317057,437.61467785305445,596.2654774983724C450.6062545776367,607.1821441650391,450.6062545776367,620.6821441650391,450.6062545776367,634.1821441650391C450.6062545776367,647.6821441650391,450.6062545776367,661.1821441650391,445.84673803823966,672.0988108317057C441.0872214988426,683.0154774983724,431.5681884200485,691.3488108317057,426.80867188065145,695.5154774983724L422.04915534125433,699.6821441650391" id="L-GEN-O" class=" edge-thickness-normal edge-pattern-solid flowchart-link LS-GEN LE-O" marker-end="url(#flowchart-pointEnd)"></path></g><g class="edgeLabels"><g class="edgeLabel"><g class="label" transform="translate(0, 0)"><foreignObject width="0" height="0"><div xmlns="http://www.w3.org/1999/xhtml" style="display: inline-block; white-space: nowrap;"><span class="edgeLabel"></span></div></foreignObject></g></g><g class="edgeLabel"><g class="label" transform="translate(0, 0)"><foreignObject width="0" height="0"><div xmlns="http://www.w3.org/1999/xhtml" style="display: inline-block; white-space: nowrap;"><span class="edgeLabel"></span></div></foreignObject></g></g><g class="edgeLabel"><g class="label" transform="translate(0, 0)"><foreignObject width="0" height="0"><div xmlns="http://www.w3.org/1999/xhtml" style="display: inline-block; white-space: nowrap;"><span class="edgeLabel"></span></div></foreignObject></g></g><g class="edgeLabel"><g class="label" transform="translate(0, 0)"><foreignObject width="0" height="0"><div xmlns="http://www.w3.org/1999/xhtml" style="display: inline-block; white-space: nowrap;"><span class="edgeLabel"></span></div></foreignObject></g></g><g class="edgeLabel"><g class="label" transform="translate(0, 0)"><foreignObject width="0" height="0"><div xmlns="http://www.w3.org/1999/xhtml" style="display: inline-block; white-space: nowrap;"><span class="edgeLabel"></span></div></foreignObject></g></g><g class="edgeLabel"><g class="label" transform="translate(0, 0)"><foreignObject width="0" height="0"><div xmlns="http://www.w3.org/1999/xhtml" style="display: inline-block; white-space: nowrap;"><span class="edgeLabel"></span></div></foreignObject></g></g><g class="edgeLabel"><g class="label" transform="translate(0, 0)"><foreignObject width="0" height="0"><div xmlns="http://www.w3.org/1999/xhtml" style="display: inline-block; white-space: nowrap;"><span class="edgeLabel"></span></div></foreignObject></g></g><g class="edgeLabel"><g class="label" transform="translate(0, 0)"><foreignObject width="0" height="0"><div xmlns="http://www.w3.org/1999/xhtml" style="display: inline-block; white-space: nowrap;"><span class="edgeLabel"></span></div></foreignObject></g></g><g class="edgeLabel"><g class="label" transform="translate(0, 0)"><foreignObject width="0" height="0"><div xmlns="http://www.w3.org/1999/xhtml" style="display: inline-block; white-space: nowrap;"><span class="edgeLabel"></span></div></foreignObject></g></g><g class="edgeLabel"><g class="label" transform="translate(0, 0)"><foreignObject width="0" height="0"><div xmlns="http://www.w3.org/1999/xhtml" style="display: inline-block; white-space: nowrap;"><span class="edgeLabel"></span></div></foreignObject></g></g><g class="edgeLabel"><g class="label" transform="translate(0, 0)"><foreignObject width="0" height="0"><div xmlns="http://www.w3.org/1999/xhtml" style="display: inline-block; white-space: nowrap;"><span class="edgeLabel"></span></div></foreignObject></g></g><g class="edgeLabel"><g class="label" transform="translate(0, 0)"><foreignObject width="0" height="0"><div xmlns="http://www.w3.org/1999/xhtml" style="display: inline-block; white-space: nowrap;"><span class="edgeLabel"></span></div></foreignObject></g></g><g class="edgeLabel"><g class="label" transform="translate(0, 0)"><foreignObject width="0" height="0"><div xmlns="http://www.w3.org/1999/xhtml" style="display: inline-block; white-space: nowrap;"><span class="edgeLabel"></span></div></foreignObject></g></g><g class="edgeLabel"><g class="label" transform="translate(0, 0)"><foreignObject width="0" height="0"><div xmlns="http://www.w3.org/1999/xhtml" style="display: inline-block; white-space: nowrap;"><span class="edgeLabel"></span></div></foreignObject></g></g><g class="edgeLabel"><g class="label" transform="translate(0, 0)"><foreignObject width="0" height="0"><div xmlns="http://www.w3.org/1999/xhtml" style="display: inline-block; white-space: nowrap;"><span class="edgeLabel"></span></div></foreignObject></g></g></g><g class="nodes"><g class="node default default" id="flowchart-U-290" transform="translate(288.0656280517578, 23.5)"><rect class="basic label-container" style="" rx="0" ry="0" x="-21.412500381469727" y="-15.5" width="42.82500076293945" height="31"></rect><g class="label" style="" transform="translate(-13.912500381469727, -8)"><foreignObject width="27.825000762939453" height="16"><div xmlns="http://www.w3.org/1999/xhtml" style="display: inline-block; white-space: nowrap;"><span class="nodeLabel">User</span></div></foreignObject></g></g><g class="node default default" id="flowchart-F-291" transform="translate(288.0656280517578, 104.5)"><rect class="basic label-container" style="" rx="0" ry="0" x="-71.79375457763672" y="-15.5" width="143.58750915527344" height="31"></rect><g class="label" style="" transform="translate(-64.29375457763672, -8)"><foreignObject width="128.58750915527344" height="16"><div xmlns="http://www.w3.org/1999/xhtml" style="display: inline-block; white-space: nowrap;"><span class="nodeLabel">Instagram Flow Page</span></div></foreignObject></g></g><g class="node default default" id="flowchart-L-293" transform="translate(95.17500305175781, 185.5)"><rect class="basic label-container" style="" rx="0" ry="0" x="-46.275001525878906" y="-15.5" width="92.55000305175781" height="31"></rect><g class="label" style="" transform="translate(-38.775001525878906, -8)"><foreignObject width="77.55000305175781" height="16"><div xmlns="http://www.w3.org/1999/xhtml" style="display: inline-block; white-space: nowrap;"><span class="nodeLabel">Item Lookup</span></div></foreignObject></g></g><g class="node default" id="flowchart-S-295" label-offset-y="14.56071509509383" transform="translate(95.17500305175781, 288.34107208251953)"><path d="M 0,14.56071509509383 a 87.17500305175781,14.56071509509383 0,0,0 174.35000610351562 0 a 87.17500305175781,14.56071509509383 0,0,0 -174.35000610351562 0 l 0,45.560715095093826 a 87.17500305175781,14.56071509509383 0,0,0 174.35000610351562 0 l 0,-45.560715095093826" transform="translate(-87.17500305175781,-37.34107264264074)"></path><g class="label" style="" transform="translate(-79.67500305175781, -8)"><foreignObject width="159.35000610351562" height="16"><div xmlns="http://www.w3.org/1999/xhtml" style="display: inline-block; white-space: nowrap;"><span class="nodeLabel">Snowflake Item Metadata</span></div></foreignObject></g></g><g class="node default default" id="flowchart-M-297" transform="translate(315.0750045776367, 288.34107208251953)"><rect class="basic label-container" style="" rx="0" ry="0" x="-82.7249984741211" y="-15.5" width="165.4499969482422" height="31"></rect><g class="label" style="" transform="translate(-75.2249984741211, -8)"><foreignObject width="150.4499969482422" height="16"><div xmlns="http://www.w3.org/1999/xhtml" style="display: inline-block; white-space: nowrap;"><span class="nodeLabel">Method Section Content</span></div></foreignObject></g></g><g class="node default default" id="flowchart-C-299" transform="translate(529.1250076293945, 288.34107208251953)"><rect class="basic label-container" style="" rx="0" ry="0" x="-81.32500457763672" y="-15.5" width="162.65000915527344" height="31"></rect><g class="label" style="" transform="translate(-73.82500457763672, -8)"><foreignObject width="147.65000915527344" height="16"><div xmlns="http://www.w3.org/1999/xhtml" style="display: inline-block; white-space: nowrap;"><span class="nodeLabel">Campaign Caption Seed</span></div></foreignObject></g></g><g class="node default default" id="flowchart-V-301" transform="translate(324.32812881469727, 391.18214416503906)"><rect class="basic label-container" style="" rx="0" ry="0" x="-55.41875076293945" y="-15.5" width="110.8375015258789" height="31"></rect><g class="label" style="" transform="translate(-47.91875076293945, -8)"><foreignObject width="95.8375015258789" height="16"><div xmlns="http://www.w3.org/1999/xhtml" style="display: inline-block; white-space: nowrap;"><span class="nodeLabel">Validator Agent</span></div></foreignObject></g></g><g class="node default default" id="flowchart-SUM-307" transform="translate(324.32812881469727, 472.18214416503906)"><rect class="basic label-container" style="" rx="0" ry="0" x="-67.1500015258789" y="-15.5" width="134.3000030517578" height="31"></rect><g class="label" style="" transform="translate(-59.650001525878906, -8)"><foreignObject width="119.30000305175781" height="16"><div xmlns="http://www.w3.org/1999/xhtml" style="display: inline-block; white-space: nowrap;"><span class="nodeLabel">Summarizing Agent</span></div></foreignObject></g></g><g class="node default default" id="flowchart-GEN-309" transform="translate(324.32812881469727, 553.1821441650391)"><rect class="basic label-container" style="" rx="0" ry="0" x="-89.30000305175781" y="-15.5" width="178.60000610351562" height="31"></rect><g class="label" style="" transform="translate(-81.80000305175781, -8)"><foreignObject width="163.60000610351562" height="16"><div xmlns="http://www.w3.org/1999/xhtml" style="display: inline-block; white-space: nowrap;"><span class="nodeLabel">Content Generation Agent</span></div></foreignObject></g></g><g class="node default default" id="flowchart-CRIT-311" transform="translate(198.0500030517578, 634.1821441650391)"><rect class="basic label-container" style="" rx="0" ry="0" x="-52.50625228881836" y="-15.5" width="105.01250457763672" height="31"></rect><g class="label" style="" transform="translate(-45.00625228881836, -8)"><foreignObject width="90.01250457763672" height="16"><div xmlns="http://www.w3.org/1999/xhtml" style="display: inline-block; white-space: nowrap;"><span class="nodeLabel">Critique Agent</span></div></foreignObject></g></g><g class="node default default" id="flowchart-VIS-315" transform="translate(358.0812530517578, 634.1821441650391)"><rect class="basic label-container" style="" rx="0" ry="0" x="-57.525001525878906" y="-15.5" width="115.05000305175781" height="31"></rect><g class="label" style="" transform="translate(-50.025001525878906, -8)"><foreignObject width="100.05000305175781" height="16"><div xmlns="http://www.w3.org/1999/xhtml" style="display: inline-block; white-space: nowrap;"><span class="nodeLabel">Visualizer Agent</span></div></foreignObject></g></g><g class="node default" id="flowchart-O-317" transform="translate(404.34375381469727, 715.1821441650391)"><rect class="basic label-container" style="" rx="0" ry="0" x="-88.32500457763672" y="-15.5" width="176.65000915527344" height="31"></rect><g class="label" style="" transform="translate(-80.82500457763672, -8)"><foreignObject width="161.65000915527344" height="16"><div xmlns="http://www.w3.org/1999/xhtml" style="display: inline-block; white-space: nowrap;"><span class="nodeLabel">Final Instagram Campaign</span></div></foreignObject></g></g></g></g></g></svg>